<mxfile host="Electron" modified="2023-05-03T07:06:09.435Z" agent="Mozilla/5.0 (Windows NT 10.0; Win64; x64) AppleWebKit/537.36 (KHTML, like Gecko) draw.io/21.2.1 Chrome/112.0.5615.87 Electron/24.1.2 Safari/537.36" etag="rPkxnDcLwiKryraDeauP" version="21.2.1" type="device">
  <diagram name="Page-1" id="03018318-947c-dd8e-b7a3-06fadd420f32">
    <mxGraphModel dx="988" dy="573" grid="1" gridSize="10" guides="1" tooltips="1" connect="1" arrows="1" fold="1" page="1" pageScale="1" pageWidth="1100" pageHeight="850" background="#ffffff" math="0" shadow="0">
      <root>
        <mxCell id="0" />
        <mxCell id="1" parent="0" />
        <mxCell id="677b7b8949515195-1" value="" style="whiteSpace=wrap;html=1;rounded=0;shadow=0;labelBackgroundColor=none;strokeColor=#000000;strokeWidth=1;fillColor=none;fontFamily=Verdana;fontSize=12;fontColor=#000000;align=center;comic=1;" parent="1" vertex="1">
          <mxGeometry x="20" y="20" width="1060" height="810" as="geometry" />
        </mxCell>
        <mxCell id="677b7b8949515195-2" value="&lt;font style=&quot;font-size: 24px;&quot;&gt;LOGO&lt;/font&gt;" style="whiteSpace=wrap;html=1;rounded=0;shadow=0;labelBackgroundColor=none;strokeWidth=1;fontFamily=Verdana;fontSize=28;align=center;comic=1;" parent="1" vertex="1">
          <mxGeometry x="1000" y="30" width="70" height="40" as="geometry" />
        </mxCell>
        <mxCell id="677b7b8949515195-8" value="" style="whiteSpace=wrap;html=1;rounded=0;shadow=0;labelBackgroundColor=none;strokeWidth=1;fillColor=none;fontFamily=Verdana;fontSize=12;align=center;comic=1;" parent="1" vertex="1">
          <mxGeometry x="30" y="610" width="330" height="210" as="geometry" />
        </mxCell>
        <mxCell id="677b7b8949515195-9" value="" style="line;strokeWidth=1;html=1;rounded=0;shadow=0;labelBackgroundColor=none;fillColor=none;fontFamily=Verdana;fontSize=14;fontColor=#000000;align=center;comic=1;" parent="1" vertex="1">
          <mxGeometry x="20" y="70" width="1060" height="10" as="geometry" />
        </mxCell>
        <mxCell id="677b7b8949515195-10" value="" style="whiteSpace=wrap;html=1;rounded=0;shadow=0;labelBackgroundColor=none;strokeWidth=1;fillColor=none;fontFamily=Verdana;fontSize=12;align=center;comic=1;" parent="1" vertex="1">
          <mxGeometry x="30" y="80" width="1050" height="50" as="geometry" />
        </mxCell>
        <mxCell id="677b7b8949515195-11" value="Home" style="text;html=1;points=[];align=left;verticalAlign=top;spacingTop=-4;fontSize=14;fontFamily=Verdana" parent="1" vertex="1">
          <mxGeometry x="40" y="95" width="60" height="15" as="geometry" />
        </mxCell>
        <mxCell id="677b7b8949515195-12" value="Import/Export" style="text;html=1;points=[];align=left;verticalAlign=top;spacingTop=-4;fontSize=14;fontFamily=Verdana" parent="1" vertex="1">
          <mxGeometry x="120" y="95" width="60" height="20" as="geometry" />
        </mxCell>
        <mxCell id="677b7b8949515195-13" value="Analysis tools" style="text;html=1;points=[];align=left;verticalAlign=top;spacingTop=-4;fontSize=14;fontFamily=Verdana" parent="1" vertex="1">
          <mxGeometry x="260" y="95" width="60" height="20" as="geometry" />
        </mxCell>
        <mxCell id="677b7b8949515195-14" value="QR Marker Configuration&amp;nbsp;" style="text;html=1;points=[];align=left;verticalAlign=top;spacingTop=-4;fontSize=14;fontFamily=Verdana" parent="1" vertex="1">
          <mxGeometry x="400" y="95" width="60" height="20" as="geometry" />
        </mxCell>
        <mxCell id="677b7b8949515195-16" value="" style="verticalLabelPosition=bottom;shadow=0;dashed=0;align=center;html=1;verticalAlign=top;strokeWidth=1;shape=mxgraph.mockup.graphics.simpleIcon;strokeColor=#999999;rounded=0;labelBackgroundColor=none;fontFamily=Verdana;fontSize=14;fontColor=#000000;comic=1;" parent="1" vertex="1">
          <mxGeometry x="70" y="180" width="480" height="330" as="geometry" />
        </mxCell>
        <mxCell id="qwBX4drv_svDkVCXMGxv-3" value="Playback options" style="whiteSpace=wrap;html=1;rounded=0;shadow=0;labelBackgroundColor=none;strokeWidth=1;fillColor=none;fontFamily=Verdana;fontSize=12;align=center;comic=1;" parent="1" vertex="1">
          <mxGeometry x="70" y="530" width="480" height="50" as="geometry" />
        </mxCell>
        <mxCell id="qwBX4drv_svDkVCXMGxv-4" value="General Analytics&amp;nbsp;" style="text;html=1;points=[];align=left;verticalAlign=top;spacingTop=-4;fontSize=14;fontFamily=Verdana" parent="1" vertex="1">
          <mxGeometry x="130" y="625" width="60" height="15" as="geometry" />
        </mxCell>
        <mxCell id="qwBX4drv_svDkVCXMGxv-5" value="Time Frame&amp;nbsp;" style="text;html=1;points=[];align=left;verticalAlign=top;spacingTop=-4;fontSize=14;fontFamily=Verdana" parent="1" vertex="1">
          <mxGeometry x="40" y="655" width="60" height="15" as="geometry" />
        </mxCell>
        <mxCell id="qwBX4drv_svDkVCXMGxv-7" value="Fixation points&amp;nbsp;" style="text;html=1;points=[];align=left;verticalAlign=top;spacingTop=-4;fontSize=14;fontFamily=Verdana" parent="1" vertex="1">
          <mxGeometry x="40" y="687.5" width="60" height="15" as="geometry" />
        </mxCell>
        <mxCell id="qwBX4drv_svDkVCXMGxv-8" value="Saccade Time" style="text;html=1;points=[];align=left;verticalAlign=top;spacingTop=-4;fontSize=14;fontFamily=Verdana" parent="1" vertex="1">
          <mxGeometry x="40" y="715" width="60" height="15" as="geometry" />
        </mxCell>
        <mxCell id="qwBX4drv_svDkVCXMGxv-9" value="Fixation to Saccade ratio" style="text;html=1;points=[];align=left;verticalAlign=top;spacingTop=-4;fontSize=14;fontFamily=Verdana" parent="1" vertex="1">
          <mxGeometry x="40" y="745" width="60" height="15" as="geometry" />
        </mxCell>
        <mxCell id="qwBX4drv_svDkVCXMGxv-10" value="" style="rounded=1;whiteSpace=wrap;html=1;" parent="1" vertex="1">
          <mxGeometry x="140" y="655" width="120" height="20" as="geometry" />
        </mxCell>
        <mxCell id="qwBX4drv_svDkVCXMGxv-11" value="" style="whiteSpace=wrap;html=1;rounded=0;shadow=0;labelBackgroundColor=none;strokeWidth=1;fillColor=none;fontFamily=Verdana;fontSize=12;align=center;comic=1;" parent="1" vertex="1">
          <mxGeometry x="380" y="610" width="330" height="210" as="geometry" />
        </mxCell>
        <mxCell id="qwBX4drv_svDkVCXMGxv-19" value="QR Space Analytics" style="text;html=1;points=[];align=left;verticalAlign=top;spacingTop=-4;fontSize=14;fontFamily=Verdana" parent="1" vertex="1">
          <mxGeometry x="480" y="625" width="60" height="15" as="geometry" />
        </mxCell>
        <mxCell id="qwBX4drv_svDkVCXMGxv-20" value="Time Frame&amp;nbsp;" style="text;html=1;points=[];align=left;verticalAlign=top;spacingTop=-4;fontSize=14;fontFamily=Verdana" parent="1" vertex="1">
          <mxGeometry x="400" y="655" width="60" height="15" as="geometry" />
        </mxCell>
        <mxCell id="qwBX4drv_svDkVCXMGxv-21" value="Fixation points&amp;nbsp;" style="text;html=1;points=[];align=left;verticalAlign=top;spacingTop=-4;fontSize=14;fontFamily=Verdana" parent="1" vertex="1">
          <mxGeometry x="400" y="687.5" width="60" height="15" as="geometry" />
        </mxCell>
        <mxCell id="qwBX4drv_svDkVCXMGxv-22" value="Saccade Time" style="text;html=1;points=[];align=left;verticalAlign=top;spacingTop=-4;fontSize=14;fontFamily=Verdana" parent="1" vertex="1">
          <mxGeometry x="400" y="715" width="60" height="15" as="geometry" />
        </mxCell>
        <mxCell id="qwBX4drv_svDkVCXMGxv-23" value="Fixation to Saccade ratio" style="text;html=1;points=[];align=left;verticalAlign=top;spacingTop=-4;fontSize=14;fontFamily=Verdana" parent="1" vertex="1">
          <mxGeometry x="400" y="745" width="60" height="15" as="geometry" />
        </mxCell>
        <mxCell id="qwBX4drv_svDkVCXMGxv-24" value="" style="rounded=1;whiteSpace=wrap;html=1;" parent="1" vertex="1">
          <mxGeometry x="500" y="655" width="120" height="20" as="geometry" />
        </mxCell>
        <mxCell id="qwBX4drv_svDkVCXMGxv-25" value="" style="whiteSpace=wrap;html=1;rounded=0;shadow=0;labelBackgroundColor=none;strokeWidth=1;fillColor=none;fontFamily=Verdana;fontSize=12;align=center;comic=1;" parent="1" vertex="1">
          <mxGeometry x="730" y="610" width="330" height="210" as="geometry" />
        </mxCell>
        <mxCell id="qwBX4drv_svDkVCXMGxv-26" value="AOI Analytics" style="text;html=1;points=[];align=left;verticalAlign=top;spacingTop=-4;fontSize=14;fontFamily=Verdana" parent="1" vertex="1">
          <mxGeometry x="860" y="625" width="60" height="15" as="geometry" />
        </mxCell>
        <mxCell id="qwBX4drv_svDkVCXMGxv-27" value="Time Frame&amp;nbsp;" style="text;html=1;points=[];align=left;verticalAlign=top;spacingTop=-4;fontSize=14;fontFamily=Verdana" parent="1" vertex="1">
          <mxGeometry x="750" y="655" width="60" height="15" as="geometry" />
        </mxCell>
        <mxCell id="qwBX4drv_svDkVCXMGxv-28" value="Fixation points&amp;nbsp;" style="text;html=1;points=[];align=left;verticalAlign=top;spacingTop=-4;fontSize=14;fontFamily=Verdana" parent="1" vertex="1">
          <mxGeometry x="750" y="687.5" width="60" height="15" as="geometry" />
        </mxCell>
        <mxCell id="qwBX4drv_svDkVCXMGxv-29" value="Saccade Time" style="text;html=1;points=[];align=left;verticalAlign=top;spacingTop=-4;fontSize=14;fontFamily=Verdana" parent="1" vertex="1">
          <mxGeometry x="750" y="715" width="60" height="15" as="geometry" />
        </mxCell>
        <mxCell id="qwBX4drv_svDkVCXMGxv-30" value="Fixation to Saccade ratio" style="text;html=1;points=[];align=left;verticalAlign=top;spacingTop=-4;fontSize=14;fontFamily=Verdana" parent="1" vertex="1">
          <mxGeometry x="750" y="745" width="60" height="15" as="geometry" />
        </mxCell>
        <mxCell id="qwBX4drv_svDkVCXMGxv-31" value="" style="rounded=1;whiteSpace=wrap;html=1;" parent="1" vertex="1">
          <mxGeometry x="850" y="655" width="120" height="20" as="geometry" />
        </mxCell>
        <mxCell id="qwBX4drv_svDkVCXMGxv-34" value="Pupilometry time evolution" style="text;html=1;points=[];align=left;verticalAlign=top;spacingTop=-4;fontSize=14;fontFamily=Verdana" parent="1" vertex="1">
          <mxGeometry x="40" y="775" width="60" height="15" as="geometry" />
        </mxCell>
        <mxCell id="qwBX4drv_svDkVCXMGxv-36" value="Pupilometry time evolution" style="text;html=1;points=[];align=left;verticalAlign=top;spacingTop=-4;fontSize=14;fontFamily=Verdana" parent="1" vertex="1">
          <mxGeometry x="400" y="775" width="60" height="15" as="geometry" />
        </mxCell>
        <mxCell id="qwBX4drv_svDkVCXMGxv-37" value="Pupilometry time evolution" style="text;html=1;points=[];align=left;verticalAlign=top;spacingTop=-4;fontSize=14;fontFamily=Verdana" parent="1" vertex="1">
          <mxGeometry x="750" y="775" width="60" height="15" as="geometry" />
        </mxCell>
        <mxCell id="qwBX4drv_svDkVCXMGxv-38" value="" style="verticalLabelPosition=bottom;shadow=0;dashed=0;align=center;html=1;verticalAlign=top;strokeWidth=1;shape=mxgraph.mockup.graphics.simpleIcon;strokeColor=#999999;rounded=0;labelBackgroundColor=none;fontFamily=Verdana;fontSize=14;fontColor=#000000;comic=1;" parent="1" vertex="1">
          <mxGeometry x="560" y="180" width="480" height="330" as="geometry" />
        </mxCell>
        <mxCell id="qwBX4drv_svDkVCXMGxv-39" value="Playback options - video in QR space with overlays - if enabled" style="whiteSpace=wrap;html=1;rounded=0;shadow=0;labelBackgroundColor=none;strokeWidth=1;fillColor=none;fontFamily=Verdana;fontSize=12;align=center;comic=1;" parent="1" vertex="1">
          <mxGeometry x="560" y="530" width="480" height="50" as="geometry" />
        </mxCell>
        <mxCell id="qwBX4drv_svDkVCXMGxv-40" value="" style="rounded=0;whiteSpace=wrap;html=1;" parent="1" vertex="1">
          <mxGeometry x="150" y="120" width="160" height="300" as="geometry" />
        </mxCell>
        <mxCell id="qwBX4drv_svDkVCXMGxv-41" value="Import Video File" style="text;html=1;points=[];align=left;verticalAlign=top;spacingTop=-4;fontSize=14;fontFamily=Verdana" parent="1" vertex="1">
          <mxGeometry x="160" y="130" width="60" height="15" as="geometry" />
        </mxCell>
        <mxCell id="qwBX4drv_svDkVCXMGxv-42" value="Import Gaze Data" style="text;html=1;points=[];align=left;verticalAlign=top;spacingTop=-4;fontSize=14;fontFamily=Verdana" parent="1" vertex="1">
          <mxGeometry x="160" y="160" width="60" height="15" as="geometry" />
        </mxCell>
        <mxCell id="qwBX4drv_svDkVCXMGxv-43" value="Export Raw data&lt;br&gt;in QR space" style="text;html=1;points=[];align=left;verticalAlign=top;spacingTop=-4;fontSize=14;fontFamily=Verdana" parent="1" vertex="1">
          <mxGeometry x="160" y="190" width="60" height="15" as="geometry" />
        </mxCell>
        <mxCell id="qwBX4drv_svDkVCXMGxv-44" value="Export Video with&amp;nbsp;&lt;br&gt;Eye-metrics" style="text;html=1;points=[];align=left;verticalAlign=top;spacingTop=-4;fontSize=14;fontFamily=Verdana" parent="1" vertex="1">
          <mxGeometry x="160" y="237.5" width="60" height="15" as="geometry" />
        </mxCell>
        <mxCell id="qwBX4drv_svDkVCXMGxv-45" value="Export Still frame&amp;nbsp;&lt;br&gt;Eye-metrics" style="text;html=1;points=[];align=left;verticalAlign=top;spacingTop=-4;fontSize=14;fontFamily=Verdana" parent="1" vertex="1">
          <mxGeometry x="160" y="280" width="60" height="15" as="geometry" />
        </mxCell>
        <mxCell id="qwBX4drv_svDkVCXMGxv-46" value="Export&amp;nbsp;&amp;nbsp;&lt;br&gt;Eye-metrics" style="text;html=1;points=[];align=left;verticalAlign=top;spacingTop=-4;fontSize=14;fontFamily=Verdana" parent="1" vertex="1">
          <mxGeometry x="160" y="320" width="60" height="15" as="geometry" />
        </mxCell>
        <mxCell id="qwBX4drv_svDkVCXMGxv-47" value="Export AOI&amp;nbsp;&lt;br&gt;Eye-metrics" style="text;html=1;points=[];align=left;verticalAlign=top;spacingTop=-4;fontSize=14;fontFamily=Verdana" parent="1" vertex="1">
          <mxGeometry x="160" y="360" width="60" height="15" as="geometry" />
        </mxCell>
        <mxCell id="AHtWSh_vj4_ZFJC4VJW7-1" value="" style="rounded=0;whiteSpace=wrap;html=1;" vertex="1" parent="1">
          <mxGeometry x="410" y="190" width="430" height="220" as="geometry" />
        </mxCell>
        <mxCell id="AHtWSh_vj4_ZFJC4VJW7-2" value="Export still frame with Eye metrics&amp;nbsp;" style="text;html=1;align=center;verticalAlign=middle;resizable=0;points=[];autosize=1;strokeColor=none;fillColor=none;" vertex="1" parent="1">
          <mxGeometry x="430" y="190" width="210" height="30" as="geometry" />
        </mxCell>
        <mxCell id="AHtWSh_vj4_ZFJC4VJW7-3" value="Folders" style="rounded=0;whiteSpace=wrap;html=1;" vertex="1" parent="1">
          <mxGeometry x="430" y="220" width="220" height="100" as="geometry" />
        </mxCell>
        <mxCell id="AHtWSh_vj4_ZFJC4VJW7-4" value="Save" style="rounded=0;whiteSpace=wrap;html=1;" vertex="1" parent="1">
          <mxGeometry x="605" y="332.5" width="45" height="25" as="geometry" />
        </mxCell>
        <mxCell id="AHtWSh_vj4_ZFJC4VJW7-5" value="" style="endArrow=classic;html=1;rounded=0;entryX=0;entryY=0.25;entryDx=0;entryDy=0;exitX=1.01;exitY=0.563;exitDx=0;exitDy=0;exitPerimeter=0;" edge="1" parent="1" source="qwBX4drv_svDkVCXMGxv-40" target="AHtWSh_vj4_ZFJC4VJW7-1">
          <mxGeometry width="50" height="50" relative="1" as="geometry">
            <mxPoint x="310" y="250" as="sourcePoint" />
            <mxPoint x="410" y="200" as="targetPoint" />
          </mxGeometry>
        </mxCell>
        <mxCell id="AHtWSh_vj4_ZFJC4VJW7-6" value="File name" style="rounded=0;whiteSpace=wrap;html=1;" vertex="1" parent="1">
          <mxGeometry x="430" y="332.5" width="150" height="25" as="geometry" />
        </mxCell>
        <mxCell id="AHtWSh_vj4_ZFJC4VJW7-7" value="Fixation Points" style="rounded=0;whiteSpace=wrap;html=1;" vertex="1" parent="1">
          <mxGeometry x="670" y="220" width="95" height="25" as="geometry" />
        </mxCell>
        <mxCell id="AHtWSh_vj4_ZFJC4VJW7-8" value="X" style="rounded=0;whiteSpace=wrap;html=1;" vertex="1" parent="1">
          <mxGeometry x="780" y="222.5" width="20" height="20" as="geometry" />
        </mxCell>
        <mxCell id="AHtWSh_vj4_ZFJC4VJW7-9" value="Saccades" style="rounded=0;whiteSpace=wrap;html=1;" vertex="1" parent="1">
          <mxGeometry x="670" y="255" width="95" height="25" as="geometry" />
        </mxCell>
        <mxCell id="AHtWSh_vj4_ZFJC4VJW7-10" value="X" style="rounded=0;whiteSpace=wrap;html=1;" vertex="1" parent="1">
          <mxGeometry x="780" y="257.5" width="20" height="20" as="geometry" />
        </mxCell>
        <mxCell id="AHtWSh_vj4_ZFJC4VJW7-14" value="pupillometry" style="rounded=0;whiteSpace=wrap;html=1;" vertex="1" parent="1">
          <mxGeometry x="670" y="295" width="95" height="25" as="geometry" />
        </mxCell>
        <mxCell id="AHtWSh_vj4_ZFJC4VJW7-15" value="X" style="rounded=0;whiteSpace=wrap;html=1;" vertex="1" parent="1">
          <mxGeometry x="780" y="297.5" width="20" height="20" as="geometry" />
        </mxCell>
        <mxCell id="AHtWSh_vj4_ZFJC4VJW7-20" value="Time" style="rounded=0;whiteSpace=wrap;html=1;" vertex="1" parent="1">
          <mxGeometry x="600" y="370" width="95" height="25" as="geometry" />
        </mxCell>
        <mxCell id="AHtWSh_vj4_ZFJC4VJW7-21" value="13:02:25" style="rounded=0;whiteSpace=wrap;html=1;" vertex="1" parent="1">
          <mxGeometry x="710" y="372.5" width="70" height="20" as="geometry" />
        </mxCell>
      </root>
    </mxGraphModel>
  </diagram>
</mxfile>
